# xmcd
#
# Track frame offsets: 
#        150
#        13586
#        27105
#        42746
#        54193
#        67485
#        78526
#        91005
#        100521
#        113846
#        125666
#        138615
#
# Disc length: 2119 seconds
#
# Revision: 0
# Processed by: cddbd v1.5.1PL2 Copyright (c) Steve Scherf et al.
# Submitted via: ExactAudioCopy v0.95b4
#
DISCID=a008450c
DTITLE=Charley Pride - Greatest Songs
DYEAR=2005
DGENRE=Country
TTITLE0=All I Have To Offer You (Is Me)
TTITLE1=Amazing Love
TTITLE2=Burgers And Fries
TTITLE3=I'm Just Me
TTITLE4=I'm So Afraid Of Losing You Again
TTITLE5=Is Anyone Goin' To San Antone
TTITLE6=Kaw-Liga
TTITLE7=Kiss An Angel Good Mornin'
TTITLE8=Mountain Of Love
TTITLE9=(She's Just) An Old Love Turned Memory
TTITLE10=She's Too Good To Be True
TTITLE11=You're So Good When You're Bad
EXTD=
EXTT0=
EXTT1=
EXTT2=
EXTT3=
EXTT4=
EXTT5=
EXTT6=
EXTT7=
EXTT8=
EXTT9=
EXTT10=
EXTT11=
PLAYORDER=
